<svg width="40" height="40" viewBox="0 0 40 40" fill="none" xmlns="http://www.w3.org/2000/svg">
<g clip-path="url(#clip0_5819_976)">
<g clip-path="url(#clip1_5819_976)">
<path d="M8.39746 0.00585938L36.9131 6.25H39.999V40H7.65527C7.11655 40 6.5999 39.786 6.21896 39.4051C5.83803 39.0241 5.62402 38.5075 5.62402 37.9687V29.4645L8.33755 0.0941758L8.39746 0.00585938Z" fill="#78082A"/>
<path d="M8.39746 0H35.1943C35.7331 0 36.2497 0.214006 36.6306 0.594939C37.0116 0.975873 37.2256 1.49253 37.2256 2.03125V28.125H8.39746V0Z" fill="#E51050"/>
<path d="M2.30371 31.7969L8.39746 28.125V0L2.30371 3.67188V31.7969Z" fill="#E85984"/>
<path d="M14.8965 34.6674V33.0304C14.8965 31.6804 15.7487 30.7607 17.3012 30.7607C18.6597 30.7607 19.5119 31.402 19.5541 32.6423H18.1956C18.1619 32.1276 17.8834 31.8239 17.3181 31.8239C16.7275 31.8239 16.39 32.212 16.39 32.8448V34.853C16.39 35.4858 16.719 35.8739 17.3097 35.8739C17.9172 35.8739 18.1787 35.5617 18.2041 34.9964H19.5794C19.495 36.3211 18.685 36.9371 17.2675 36.9371C15.7993 36.9371 14.8965 36.0174 14.8965 34.6674Z" fill="white"/>
<path d="M23.49 35.5109H21.7181L21.389 36.8018H19.9209L21.6084 30.8955H23.5744L25.3547 36.8018H23.8528L23.49 35.5109ZM22.5872 31.8659L21.9881 34.414H23.2032L22.5872 31.8659Z" fill="white"/>
<path d="M30.7267 33.2496V34.3381C30.7267 35.8568 29.7986 36.8019 28.0435 36.8019H26.1113V30.8955H28.2461C29.8998 30.8955 30.7267 31.8405 30.7267 33.2496ZM29.2501 33.199C29.2501 32.3721 28.9126 31.9586 28.2039 31.9586H27.5879V35.7387H28.0773C28.862 35.7387 29.2501 35.3168 29.2501 34.3803L29.2501 33.199Z" fill="white"/>
<path d="M25.0493 18.4734H20.3735L19.5052 21.8801H15.6309L20.0841 6.29395H25.272L29.9701 21.8801H26.0068L25.0493 18.4734ZM22.6669 8.85452L21.086 15.5788H24.2923L22.6669 8.85452Z" fill="white"/>
<path d="M25.0493 18.4734H20.3735L19.5052 21.8801H15.6309L20.0841 6.29395H25.272L29.9701 21.8801H26.0068L25.0493 18.4734ZM22.6669 8.85452L21.086 15.5788H24.2923L22.6669 8.85452Z" fill="white"/>
</g>
</g>
<defs>
<clipPath id="clip0_5819_976">
<rect width="40" height="40" fill="white"/>
</clipPath>
<clipPath id="clip1_5819_976">
<rect width="37.6953" height="40" fill="white" transform="translate(2.30371)"/>
</clipPath>
</defs>
</svg>
