<?xml version="1.0" standalone="no"?>
<!DOCTYPE svg PUBLIC "-//W3C//DTD SVG 20010904//EN"
 "http://www.w3.org/TR/2001/REC-SVG-20010904/DTD/svg10.dtd">
<svg version="1.0" xmlns="http://www.w3.org/2000/svg"
 width="700.000000pt" height="700.000000pt" viewBox="0 0 700.000000 700.000000"
 preserveAspectRatio="xMidYMid meet">
<metadata>
Created by potrace 1.14, written by Peter Selinger 2001-2017
</metadata>
<g transform="translate(0.000000,700.000000) scale(0.100000,-0.100000)"
fill="#000000" stroke="none">
<path d="M0 3500 l0 -3500 3500 0 3500 0 0 3500 0 3500 -3500 0 -3500 0 0
-3500z m2095 2591 c275 -58 531 -178 750 -352 87 -68 261 -252 326 -344 152
-214 251 -449 306 -725 14 -75 17 -197 20 -1067 l4 -981 332 -5 c356 -5 408
-11 602 -70 612 -187 1087 -700 1214 -1313 23 -114 46 -327 37 -350 -5 -14
-121 -15 -1168 -11 -1273 5 -1220 2 -1462 66 -699 184 -1215 784 -1296 1506
-5 50 -10 109 -10 133 l0 42 818 1 817 1 -116 18 c-428 68 -751 235 -1039 537
-238 249 -385 539 -457 903 -14 75 -17 197 -20 1064 l-4 979 123 -6 c68 -3
168 -15 223 -26z"/>
</g>
</svg>
